<svg width="94" height="29" viewBox="0 0 94 29" fill="none" xmlns="http://www.w3.org/2000/svg">
<g clip-path="url(#clip0_2509_46994)">
<path d="M89.838 28.3095H3.58158C1.64156 28.3095 0 26.9665 0 25.3249V3.98465C0 2.34309 1.64156 1 3.58158 1H89.838C91.778 1 93.4195 2.34309 93.4195 3.98465V25.3249C93.4195 26.9665 91.778 28.3095 89.838 28.3095Z" fill="#15152C"/>
<path d="M9.90915 10.4514C8.41682 12.9884 9.31222 16.8684 10.9538 19.1069C11.6999 20.3008 12.5953 21.3454 13.64 21.3454C14.2369 21.3454 14.5354 21.1962 14.9831 21.0469C15.4307 20.8977 15.8784 20.7485 16.4754 20.7485C17.0723 20.7485 17.52 20.8977 17.9677 21.0469C18.4154 21.1962 18.7139 21.3454 19.3108 21.3454C20.5047 21.3454 21.4 20.1516 21.997 19.2562C22.7431 18.2115 23.0416 17.1669 23.1908 16.8684V16.7192C23.0416 16.57 20.9523 15.8238 20.9523 13.4361C20.9523 11.4961 22.4447 10.4514 22.7431 10.3022C22.7431 10.3022 22.7431 10.3022 22.7431 10.153V10.0037C21.6985 8.51142 20.2062 8.36218 19.46 8.21295C19.3108 8.21295 19.3108 8.21295 19.1616 8.21295C18.4154 8.21295 17.6692 8.51142 17.0723 8.66065C16.6246 8.80988 16.3261 8.95911 16.1769 8.95911C15.8784 8.95911 15.58 8.80988 15.1323 8.66065C14.8338 8.51142 14.2369 8.21295 13.64 8.21295C12.1476 8.36218 10.8045 9.10835 9.90915 10.4514Z" fill="white"/>
<path d="M19.6092 4.18365C18.7138 4.18365 17.6692 4.78058 17.0723 5.52675C16.4753 6.12368 16.0276 7.1683 16.1769 8.21293C16.1769 8.21293 16.1769 8.36216 16.3261 8.36216H16.4753C17.3707 8.36216 18.2661 7.91447 18.8631 7.1683C19.6092 6.27291 19.9077 5.22828 19.6092 4.18365C19.7585 4.18365 19.7585 4.18365 19.6092 4.18365Z" fill="white"/>
<path d="M29.3094 5.67591C29.6078 5.82514 29.9063 6.1236 30.0555 6.42207C30.2047 6.5713 30.2047 7.019 30.2047 7.4667C30.2047 7.76516 30.2047 8.21286 30.0555 8.51132C29.9063 8.80979 29.6078 9.10825 29.3094 9.25749C29.0109 9.40672 28.5632 9.55595 28.2647 9.55595H26.9216V5.37744H28.2647C28.5632 5.37744 29.0109 5.52667 29.3094 5.67591ZM29.1601 8.51132C29.4586 8.21286 29.6078 7.91439 29.6078 7.4667C29.6078 7.019 29.4586 6.5713 29.1601 6.42207C28.8617 6.1236 28.5632 5.97437 28.1155 5.97437H27.5186V8.95902H28.1155C28.5632 8.80979 29.0109 8.66056 29.1601 8.51132Z" fill="white"/>
<path d="M31.5479 9.25754C31.2495 9.10831 31.1002 8.95907 30.951 8.66061C30.8018 8.36215 30.8018 8.06368 30.8018 7.76521C30.8018 7.46675 30.8018 7.16828 30.951 6.86982C31.1002 6.57135 31.2495 6.42212 31.5479 6.27289C31.8464 6.12366 31.9956 6.12366 32.4433 6.12366C32.891 6.12366 33.0402 6.12366 33.3387 6.27289C33.6372 6.42212 33.7864 6.57135 33.9356 6.86982C34.0849 7.16828 34.0849 7.46675 34.0849 7.76521C34.0849 8.06368 34.0849 8.36215 33.9356 8.66061C33.7864 8.95907 33.6372 9.10831 33.3387 9.25754C33.0402 9.40677 32.7418 9.40677 32.4433 9.40677C31.9956 9.40677 31.6972 9.40677 31.5479 9.25754ZM32.7418 8.80984C32.891 8.66061 33.0402 8.66061 33.0402 8.51138C33.1895 8.21291 33.1895 8.06368 33.1895 7.76521C33.1895 7.46675 33.1895 7.31752 33.0402 7.16829C32.891 7.01905 32.891 6.86982 32.7418 6.86982C32.5925 6.72059 32.4433 6.72059 32.2941 6.72059C32.1449 6.72059 31.9956 6.72059 31.8464 6.86982C31.6972 7.01905 31.5479 7.01905 31.5479 7.16829C31.3987 7.31752 31.3987 7.46675 31.3987 7.76521C31.3987 8.06368 31.5479 8.36214 31.6972 8.51138C31.8464 8.66061 32.1449 8.80984 32.2941 8.80984C32.4433 8.80984 32.5925 8.80984 32.7418 8.80984Z" fill="white"/>
<path d="M38.8601 6.27289L37.8155 9.40677H37.2185L36.4724 7.01905L35.8754 9.40677H35.1293L34.2339 6.27289H34.8308L35.577 8.80984L36.1739 6.27289H36.9201L37.517 8.80984L38.2632 6.27289H38.8601Z" fill="white"/>
<path d="M41.5463 6.27289C41.6956 6.42212 41.8448 6.57135 41.994 6.72059C42.1433 6.86982 42.1433 7.16828 42.1433 7.46675V9.40677H41.5463V7.61598C41.5463 7.31752 41.5463 7.16828 41.3971 7.01905C41.2479 6.86982 40.9494 6.72059 40.8002 6.72059C40.5017 6.72059 40.3525 6.72059 40.2033 7.01905C40.054 7.16828 40.054 7.31752 40.054 7.61598V9.40677H39.4571V6.27289H40.054V6.57135C40.2033 6.42212 40.3525 6.27289 40.5017 6.27289C40.651 6.27289 40.8002 6.12366 41.0986 6.12366C41.0986 6.12366 41.3971 6.27289 41.5463 6.27289Z" fill="white"/>
<path d="M43.6356 5.07898H43.0386V9.25749H43.6356V5.07898Z" fill="white"/>
<path d="M45.1282 9.25754C44.8298 9.10831 44.6805 8.95907 44.5313 8.66061C44.3821 8.36214 44.3821 8.06368 44.3821 7.76521C44.3821 7.46675 44.3821 7.16828 44.5313 6.86982C44.6805 6.72059 44.8298 6.57135 45.1282 6.42212C45.4267 6.27289 45.5759 6.27289 46.0236 6.27289C46.3221 6.27289 46.6206 6.27289 46.919 6.42212C47.2175 6.57135 47.3667 6.72059 47.516 7.01905C47.6652 7.31752 47.6652 7.61598 47.6652 7.91445C47.6652 8.21291 47.6652 8.51138 47.516 8.80984C47.3667 9.10831 47.2175 9.25754 46.919 9.40677C46.6206 9.556 46.3221 9.556 46.0236 9.556C45.5759 9.40677 45.4267 9.40677 45.1282 9.25754ZM46.4713 8.80984C46.6206 8.66061 46.6206 8.51138 46.7698 8.36214C46.919 8.21291 46.919 8.06368 46.919 7.76521C46.919 7.46675 46.919 7.31752 46.7698 7.16828C46.6206 7.01905 46.6206 6.86982 46.4713 6.86982C46.3221 6.72059 46.1729 6.72059 46.0236 6.72059C45.8744 6.72059 45.7252 6.72059 45.5759 6.86982C45.4267 7.01905 45.2775 7.01905 45.2775 7.16828C45.1282 7.31752 45.1282 7.46675 45.1282 7.76521C45.1282 8.06368 45.2775 8.36214 45.4267 8.51138C45.5759 8.66061 45.8744 8.80984 46.0236 8.80984C46.1729 8.80984 46.3221 8.80984 46.4713 8.80984Z" fill="white"/>
<path d="M48.2621 6.86982C48.4113 6.57135 48.5605 6.42212 48.859 6.27289C49.1575 6.12366 49.3067 6.12366 49.6052 6.12366C49.9036 6.12366 50.0529 6.12366 50.2021 6.27289C50.3513 6.42212 50.5006 6.42212 50.6498 6.57135V6.27289H51.2467V9.40677H50.6498V8.95907C50.5006 9.10831 50.3513 9.25754 50.2021 9.25754C50.0529 9.40677 49.7544 9.40677 49.6052 9.40677C49.3067 9.40677 49.1575 9.40677 48.859 9.25754C48.5605 9.10831 48.4113 8.95907 48.2621 8.66061C48.1128 8.36215 48.1128 8.06368 48.1128 7.76521C47.9636 7.46675 48.1128 7.16828 48.2621 6.86982ZM50.5006 7.16829C50.3513 7.01905 50.3513 6.86982 50.2021 6.86982C49.9036 6.72059 49.7544 6.72059 49.6052 6.72059C49.4559 6.72059 49.3067 6.72059 49.1575 6.86982C49.0082 7.01905 48.859 7.01905 48.859 7.16829C48.7098 7.31752 48.7098 7.46675 48.7098 7.76521C48.7098 8.06368 48.7098 8.21291 48.859 8.36214C49.0082 8.51138 49.0082 8.66061 49.1575 8.80984C49.3067 8.95907 49.4559 8.95907 49.6052 8.95907C49.7544 8.95907 49.9036 8.95907 50.0529 8.80984C50.2021 8.66061 50.3513 8.66061 50.3513 8.51138C50.5006 8.36214 50.5006 8.21291 50.5006 7.91445C50.6498 7.61598 50.5006 7.31752 50.5006 7.16829Z" fill="white"/>
<path d="M52.1417 6.86983C52.291 6.7206 52.4402 6.57136 52.5894 6.42213C52.8879 6.2729 53.0371 6.2729 53.3356 6.2729C53.4848 6.2729 53.7833 6.2729 53.9325 6.42213C54.0818 6.57136 54.231 6.57136 54.3802 6.7206V5.22827H54.9771V9.40678H54.3802V8.95908C54.231 9.10832 54.0818 9.25755 53.9325 9.40678C53.7833 9.55601 53.4848 9.55601 53.3356 9.55601C53.0371 9.55601 52.7387 9.55601 52.5894 9.40678C52.291 9.25755 52.1417 9.10832 51.9925 8.80985C51.8433 8.51139 51.8433 8.21292 51.8433 7.91446C51.8433 7.46676 51.9925 7.16829 52.1417 6.86983ZM54.3802 7.16829C54.231 7.01906 54.231 6.86983 54.0817 6.86983C53.9325 6.7206 53.7833 6.7206 53.4848 6.7206C53.3356 6.7206 53.1864 6.7206 53.0371 6.86983C52.8879 7.01906 52.7387 7.01906 52.7387 7.16829C52.5894 7.31753 52.5894 7.61599 52.5894 7.76522C52.5894 7.91446 52.5894 8.21292 52.7387 8.36215C52.8879 8.51139 52.8879 8.66062 53.0371 8.80985C53.1864 8.95908 53.3356 8.95908 53.4848 8.95908C53.634 8.95908 53.7833 8.95908 53.9325 8.80985C54.0818 8.66062 54.231 8.66062 54.231 8.51139C54.3802 8.36215 54.3802 8.21292 54.3802 7.91446C54.5294 7.61599 54.5294 7.31753 54.3802 7.16829Z" fill="white"/>
<path d="M58.111 9.25754C57.8125 9.10831 57.6633 8.95907 57.514 8.66061C57.3648 8.36215 57.3648 8.06368 57.3648 7.76521C57.3648 7.46675 57.3648 7.16828 57.514 6.86982C57.6633 6.57135 57.8125 6.42212 58.111 6.27289C58.4094 6.12366 58.5587 6.12366 59.0064 6.12366C59.3048 6.12366 59.6033 6.12366 59.9018 6.27289C60.051 6.57135 60.2002 6.72059 60.3495 6.86982C60.4987 7.16828 60.4987 7.46675 60.4987 7.76521C60.4987 8.06368 60.4987 8.36215 60.3495 8.66061C60.2002 8.95907 60.051 9.10831 59.7525 9.25754C59.4541 9.40677 59.1556 9.40677 58.8571 9.40677C58.5587 9.40677 58.2602 9.40677 58.111 9.25754ZM59.3048 8.80984C59.4541 8.66061 59.6033 8.66061 59.6033 8.51138C59.7525 8.36214 59.7525 8.21291 59.7525 7.91445C59.7525 7.61598 59.7525 7.46675 59.6033 7.31752C59.4541 7.16829 59.4541 7.01905 59.3048 7.01905C59.3048 6.72059 59.0064 6.72059 58.8571 6.72059C58.7079 6.72059 58.5587 6.72059 58.4094 6.86982C58.2602 7.01905 58.111 7.01905 58.111 7.16829C57.9617 7.31752 57.9617 7.46675 57.9617 7.76521C57.9617 8.06368 58.111 8.36214 58.2602 8.51138C58.4094 8.66061 58.7079 8.80984 58.8571 8.80984C59.0064 8.80984 59.1556 8.80984 59.3048 8.80984Z" fill="white"/>
<path d="M63.4838 6.27289C63.633 6.42212 63.7823 6.57135 63.9315 6.72059C64.0807 6.86982 64.0807 7.16828 64.0807 7.46675V9.40677H63.4838V7.61598C63.4838 7.31752 63.4838 7.16828 63.3346 7.01905C63.0361 6.86982 62.8869 6.72059 62.5884 6.72059C62.2899 6.72059 62.1407 6.72059 61.9915 7.01905C61.8422 7.16828 61.8422 7.31752 61.8422 7.61598V9.40677H61.2453V6.27289H61.8422V6.57135C61.9915 6.42212 62.1407 6.27289 62.2899 6.27289C62.4392 6.27289 62.5884 6.12366 62.8869 6.12366C63.0361 6.12366 63.1853 6.27289 63.4838 6.27289Z" fill="white"/>
<path d="M67.2144 6.72053V8.51132C67.2144 8.66056 67.2144 8.66056 67.3636 8.80979C67.3636 8.80979 67.5128 8.95902 67.6621 8.95902H68.1098V9.55595H67.6621C67.3636 9.55595 67.2144 9.55595 66.9159 9.40672C66.7667 9.25749 66.6174 9.10825 66.6174 8.66056V6.72053H66.319V6.27284H66.6174V5.37744H67.2144V6.1236H67.9605V6.72053H67.2144Z" fill="white"/>
<path d="M70.7957 6.27284C70.945 6.42207 71.0942 6.5713 71.2434 6.72054C71.3927 6.86977 71.3927 7.16823 71.3927 7.4667V9.40672H70.7957V7.61593C70.7957 7.31747 70.7957 7.16823 70.6465 7.019C70.4973 6.86977 70.1988 6.72054 70.0496 6.72054C69.7511 6.72054 69.6019 6.72054 69.4526 7.019C69.3034 7.16823 69.3034 7.31747 69.3034 7.61593V9.40672H68.7065V5.07898H69.3034V6.5713C69.4526 6.42207 69.6019 6.27284 69.7511 6.27284C69.9003 6.27284 70.0496 6.12361 70.348 6.12361C70.348 6.12361 70.6465 6.27284 70.7957 6.27284Z" fill="white"/>
<path d="M75.1236 8.06368H72.7358C72.7358 8.36215 72.8851 8.51138 73.0343 8.66061C73.1835 8.80984 73.482 8.95908 73.6312 8.95908C73.9297 8.95908 74.2282 8.80984 74.3774 8.51138H75.1236C74.9743 8.80984 74.8251 9.10831 74.6759 9.25754C74.3774 9.40677 74.0789 9.55601 73.7805 9.55601C73.482 9.55601 73.1835 9.55601 73.0343 9.40677C72.7358 9.25754 72.5866 9.10831 72.4374 8.80984C72.1389 8.36215 71.9897 8.06368 71.9897 7.76521C71.9897 7.46675 71.9897 7.16828 72.1389 6.86982C72.2881 6.57135 72.4374 6.42212 72.7358 6.27289C73.0343 6.12366 73.1835 6.12366 73.6312 6.12366C73.9297 6.12366 74.2282 6.12366 74.3774 6.27289C74.6759 6.42212 74.8251 6.72059 74.9743 6.86982C75.1236 7.16828 75.1236 7.31752 75.1236 7.61598C75.1236 7.91445 75.1236 7.91445 75.1236 8.06368ZM74.5266 7.46675C74.5266 7.16829 74.3774 7.01905 74.2282 6.86982C74.0789 6.72059 73.7805 6.72059 73.6312 6.72059C73.3328 6.72059 73.1835 6.72059 73.0343 6.86982C72.8851 7.01905 72.7358 7.16829 72.7358 7.46675H74.5266Z" fill="white"/>
<path d="M32.443 19.7038H28.8615L28.2645 21.4946H26.7722L29.7569 12.9883H31.3984L34.3831 21.4946H32.8907L32.443 19.7038ZM32.1446 18.5099L30.8015 14.4807L29.4584 18.5099H32.1446Z" fill="white"/>
<path d="M38.1137 14.9284C38.5614 14.7792 39.0091 14.6299 39.4568 14.6299C40.0538 14.6299 40.6507 14.7792 41.0984 15.0776C41.5461 15.3761 41.9938 15.8238 42.2922 16.2715C42.5907 16.8684 42.7399 17.4654 42.7399 18.0623C42.7399 18.8085 42.5907 19.4054 42.2922 19.8531C41.9938 20.45 41.6953 20.7485 41.0984 21.0469C40.6507 21.3454 40.0538 21.4946 39.4568 21.4946C39.0091 21.4946 38.4122 21.3454 38.1137 21.1962C37.666 21.0469 37.3676 20.7485 37.0691 20.45V24.6285H35.726V14.6299H37.0691V15.6746C37.3676 15.3761 37.666 15.0776 38.1137 14.9284ZM40.9492 16.8684C40.7999 16.57 40.5015 16.2715 40.203 16.1223C39.9045 15.973 39.6061 15.8238 39.1584 15.8238C38.8599 15.8238 38.4122 15.973 38.1137 16.1223C37.8153 16.2715 37.5168 16.57 37.3676 16.8684C37.2183 17.1669 37.0691 17.6146 37.0691 18.0623C37.0691 18.51 37.2183 18.9577 37.3676 19.2561C37.5168 19.5546 37.8153 19.8531 38.1137 20.0023C38.4122 20.1515 38.7107 20.3008 39.1584 20.3008C39.4568 20.3008 39.9045 20.1515 40.203 20.0023C40.5015 19.8531 40.7999 19.5546 40.9492 19.2561C41.0984 18.9577 41.2476 18.51 41.2476 18.0623C41.2476 17.6146 41.0984 17.1669 40.9492 16.8684Z" fill="white"/>
<path d="M46.1722 14.9284C46.6199 14.7792 47.0676 14.6299 47.5153 14.6299C48.1122 14.6299 48.7092 14.7792 49.1569 15.0776C49.6046 15.3761 50.0522 15.8238 50.3507 16.2715C50.6492 16.8684 50.7984 17.4654 50.7984 18.0623C50.7984 18.8085 50.6492 19.4054 50.3507 19.8531C50.0522 20.45 49.7538 20.7485 49.1569 21.0469C48.7092 21.3454 48.1122 21.4946 47.5153 21.4946C47.0676 21.4946 46.4707 21.3454 46.1722 21.1962C45.7245 21.0469 45.426 20.7485 45.1276 20.45V24.6285H43.7845V14.6299H45.1276V15.6746C45.426 15.3761 45.7245 15.0776 46.1722 14.9284ZM49.0076 16.8684C48.8584 16.57 48.5599 16.2715 48.2615 16.1223C47.963 15.973 47.6645 15.8238 47.2168 15.8238C46.9184 15.8238 46.4707 15.973 46.1722 16.1223C45.8737 16.2715 45.5753 16.57 45.426 16.8684C45.2768 17.1669 45.1276 17.6146 45.1276 18.0623C45.1276 18.51 45.2768 18.9577 45.426 19.2561C45.5753 19.5546 45.8737 19.8531 46.1722 20.0023C46.4707 20.1515 46.7691 20.3008 47.2168 20.3008C47.5153 20.3008 47.963 20.1515 48.2615 20.0023C48.5599 19.8531 48.8584 19.5546 49.0076 19.2561C49.1569 18.9577 49.3061 18.51 49.3061 18.0623C49.3061 17.6146 49.1569 17.1669 49.0076 16.8684Z" fill="white"/>
<path d="M56.1709 21.1961C55.7232 21.0468 55.4247 20.7484 55.1262 20.3007C54.8278 20.0022 54.6785 19.5545 54.6785 18.9576H56.1709C56.1709 19.2561 56.3201 19.7038 56.6185 19.853C56.917 20.1514 57.2155 20.1514 57.6632 20.1514C58.1109 20.1514 58.5586 20.0022 58.857 19.853C59.1555 19.5545 59.3047 19.2561 59.3047 18.9576C59.3047 18.6591 59.1555 18.5099 59.0063 18.2114C58.857 18.0622 58.5586 17.913 58.4093 17.7637C58.1109 17.6145 57.8124 17.6145 57.3647 17.4653C56.7678 17.316 56.3201 17.1668 56.0216 17.0176C55.7232 16.8683 55.4247 16.5699 55.1262 16.2714C54.8278 15.9729 54.8278 15.5252 54.8278 14.9283C54.8278 14.4806 54.977 14.0329 55.1262 13.5852C55.4247 13.2868 55.7232 12.9883 56.1709 12.6898C56.6186 12.5406 57.0662 12.3914 57.6632 12.3914C58.5586 12.3914 59.1555 12.5406 59.7524 12.9883C60.3494 13.436 60.4986 14.0329 60.6478 14.6298H59.1555C59.1555 14.3314 59.0063 14.0329 58.7078 13.8837C58.4093 13.7344 58.1109 13.5852 57.6632 13.5852C57.2155 13.5852 56.917 13.7344 56.6185 13.8837C56.3201 14.0329 56.1709 14.3314 56.1709 14.7791C56.1709 15.0775 56.3201 15.2268 56.4693 15.376C56.6185 15.5252 56.7678 15.6745 57.0662 15.8237C57.3647 15.9729 57.6632 15.9729 58.1109 16.1222C58.7078 16.2714 59.1555 16.4206 59.454 16.5699C59.7524 16.7191 60.0509 17.0176 60.3494 17.316C60.6478 17.6145 60.7971 18.0622 60.7971 18.6591C60.7971 19.1068 60.6478 19.5545 60.4986 19.853C60.2001 20.3007 59.9017 20.5991 59.454 20.7484C59.0063 21.0468 58.4093 21.0468 57.8124 21.0468C57.2155 21.4945 56.6186 21.4945 56.1709 21.1961Z" fill="white"/>
<path d="M63.7819 15.8238V19.5546C63.7819 19.853 63.7819 20.0023 63.9311 20.1515C64.0803 20.3007 64.2296 20.3007 64.528 20.3007H65.4234V21.4946H64.3788C63.7819 21.4946 63.3342 21.3454 62.8865 21.0469C62.588 20.7484 62.4388 20.3007 62.4388 19.5546V15.8238H61.5434V14.6299H62.2896V12.9883H63.6327V14.6299H65.2742V15.8238H63.7819Z" fill="white"/>
<path d="M67.6618 21.0469C67.2141 20.7485 66.7664 20.3008 66.4679 19.8531C66.1694 19.2562 66.0202 18.6592 66.0202 18.0623C66.0202 17.3161 66.1694 16.7192 66.4679 16.2715C66.7664 15.6746 67.2141 15.3761 67.6618 15.0776C68.2587 14.7792 68.7064 14.6299 69.4525 14.6299C70.0495 14.6299 70.6464 14.7792 71.2433 15.0776C71.8403 15.3761 72.1387 15.8238 72.4372 16.2715C72.7357 16.8684 72.8849 17.4654 72.8849 18.0623C72.8849 18.8085 72.7357 19.4054 72.4372 19.8531C72.1387 20.45 71.691 20.7485 71.2433 21.0469C70.6464 21.3454 70.0495 21.4946 69.4525 21.4946C68.8556 21.4946 68.2587 21.3454 67.6618 21.0469ZM70.4972 20.1515C70.7956 20.0023 71.0941 19.7038 71.2433 19.4054C71.3926 19.1069 71.5418 18.6592 71.5418 18.2115C71.5418 17.7638 71.3926 17.3161 71.2433 17.0177C71.0941 16.7192 70.7956 16.4207 70.4972 16.2715C70.1987 16.1223 69.9002 15.973 69.4525 15.973C69.1541 15.973 68.7064 16.1223 68.4079 16.2715C68.1095 16.4207 67.811 16.7192 67.6618 17.0177C67.5125 17.1669 67.5125 17.6146 67.5125 18.0623C67.5125 18.8085 67.6618 19.4054 68.1095 19.7038C68.4079 20.1515 69.0049 20.3008 69.4525 20.3008C69.751 20.3008 70.1987 20.3008 70.4972 20.1515Z" fill="white"/>
<path d="M76.3174 14.9283C76.6159 14.7791 77.0636 14.6299 77.5113 14.6299V16.1222H77.2128C76.6159 16.1222 76.3174 16.2714 76.0189 16.5699C75.7205 16.8684 75.5712 17.3161 75.5712 18.0622V21.6438H74.2281V14.6299H75.5712V15.6745C75.7205 15.376 76.0189 15.0776 76.3174 14.9283Z" fill="white"/>
<path d="M84.8239 18.659H79.6008C79.6008 19.256 79.8992 19.7037 80.1977 20.0021C80.4962 20.3006 80.9439 20.4498 81.5408 20.4498C82.287 20.4498 82.8839 20.1514 83.1824 19.5544H84.6747C84.5255 20.1514 84.0778 20.7483 83.6301 21.0468C83.0331 21.4945 82.4362 21.6437 81.69 21.6437C81.0931 21.6437 80.4962 21.4945 79.8992 21.196C79.4515 20.8975 79.0039 20.4498 78.7054 20.0021C78.4069 19.4052 78.2577 18.8083 78.2577 18.2113C78.2577 17.4652 78.4069 16.8682 78.7054 16.4205C79.0039 15.8236 79.4515 15.5252 79.8992 15.2267C80.3469 14.9282 80.9439 14.779 81.69 14.779C82.287 14.779 82.8839 14.9282 83.3316 15.2267C83.7793 15.5252 84.227 15.8236 84.5255 16.4205C84.8239 16.8682 84.9732 17.4652 84.9732 18.2113C84.8239 18.2113 84.8239 18.3606 84.8239 18.659ZM83.3316 17.4652C83.3316 17.0175 83.1824 16.5698 82.7347 16.2713C82.4362 15.9729 81.9885 15.8236 81.3916 15.8236C80.9439 15.8236 80.4962 15.9729 80.1977 16.2713C79.8992 16.5698 79.6008 17.0175 79.6008 17.4652H83.3316Z" fill="white"/>
</g>
<defs>
<clipPath id="clip0_2509_46994">
<rect width="93.4195" height="27.3095" fill="white" transform="translate(0.358276 0.751221)"/>
</clipPath>
</defs>
</svg>
