<svg width="94" height="29" viewBox="0 0 94 29" fill="none" xmlns="http://www.w3.org/2000/svg">
<g clip-path="url(#clip0_2509_47022)">
<path d="M90.4184 28.0608H4.16196C2.22194 28.0608 0.580383 26.7177 0.580383 25.0761V3.73587C0.580383 2.09431 2.22194 0.751221 4.16196 0.751221H90.4184C92.3584 0.751221 93.9999 2.09431 93.9999 3.73587V25.0761C93.9999 26.7177 92.3584 28.0608 90.4184 28.0608Z" fill="#15152C"/>
<path d="M9.71322 20.6189H24.9383C25.1431 20.6189 25.2797 20.4824 25.2797 20.2776V19.9362C25.2797 19.8679 25.2797 19.7996 25.2114 19.7996L23.6411 15.8398V8.60272C23.6411 8.3979 23.5045 8.26135 23.2997 8.26135H11.2835C11.0787 8.26135 10.9422 8.3979 10.9422 8.60272V15.8398L9.37185 19.7996V19.8679V19.9362V20.2776C9.30358 20.4824 9.5084 20.6189 9.71322 20.6189ZM15.7213 19.4583L16.0627 18.4342H18.5205L18.8619 19.4583H15.7213ZM11.9663 9.14891H22.617V15.3618H11.9663V9.14891Z" fill="white"/>
<path d="M32.5848 9.42212H31.0145L30.7414 10.1731H30.0587L31.4241 6.34979H32.1751L33.5406 10.1731H32.8579L32.5848 9.42212ZM31.7655 7.1008L31.151 8.87593H32.38L31.7655 7.1008Z" fill="white"/>
<path d="M34.4282 7.16907L35.2475 9.62693L36.0668 7.16907H36.7495L35.5889 10.1731H34.8378L33.6772 7.16907H34.4282Z" fill="white"/>
<path d="M38.4565 7.10071C38.9344 7.10071 39.3441 7.3738 39.4806 7.57862V7.16898H40.1634V10.173H39.4806V9.69512C39.2758 9.96821 38.9344 10.173 38.4565 10.173C37.7055 10.173 37.0228 9.55857 37.0228 8.60273C37.0228 7.6469 37.7055 7.10071 38.4565 7.10071ZM38.5931 7.6469C38.1151 7.6469 37.7055 7.98827 37.7055 8.67101C37.7055 9.35375 38.1151 9.69512 38.5931 9.69512C39.071 9.69512 39.4806 9.35375 39.4806 8.67101C39.4806 7.98827 39.071 7.6469 38.5931 7.6469Z" fill="white"/>
<path d="M40.8461 6.34977C40.8461 6.14495 41.0509 5.94012 41.2557 5.94012C41.4605 5.94012 41.6654 6.14495 41.6654 6.34977C41.6654 6.55459 41.4605 6.75941 41.2557 6.75941C41.0509 6.75941 40.8461 6.62286 40.8461 6.34977ZM40.9826 7.16905H41.5971V10.1731H40.9826V7.16905Z" fill="white"/>
<path d="M42.4163 6.14496H43.0308V10.1731H42.4163V6.14496Z" fill="white"/>
<path d="M45.0792 7.10071C45.5571 7.10071 45.9668 7.3738 46.1033 7.57862V7.16898H46.7178V10.173H46.1033V9.69512C45.8985 9.96821 45.5571 10.173 45.0792 10.173C44.3282 10.173 43.6454 9.55857 43.6454 8.60273C43.6454 7.6469 44.2599 7.10071 45.0792 7.10071ZM45.2157 7.6469C44.7378 7.6469 44.3282 7.98827 44.3282 8.67101C44.3282 9.35375 44.8061 9.69512 45.2157 9.69512C45.6937 9.69512 46.1033 9.35375 46.1033 8.67101C46.1033 7.98827 45.6254 7.6469 45.2157 7.6469Z" fill="white"/>
<path d="M49.2439 7.10073C50.0631 7.10073 50.6776 7.7152 50.6776 8.67103C50.6776 9.62686 50.0631 10.2413 49.2439 10.2413C48.7659 10.2413 48.4246 10.0365 48.2197 9.76341V10.1731H47.6053V6.1449H48.2197V7.64692C48.3563 7.30555 48.7659 7.10073 49.2439 7.10073ZM49.1073 7.64692C48.6294 7.64692 48.2197 7.98829 48.2197 8.67103C48.2197 9.35377 48.6977 9.69514 49.1073 9.69514C49.5852 9.69514 49.9949 9.28549 49.9949 8.67103C49.9949 8.05657 49.517 7.64692 49.1073 7.64692Z" fill="white"/>
<path d="M51.2238 6.1449H51.8383V10.1731H51.2238V6.1449Z" fill="white"/>
<path d="M53.9545 10.2414C53.0669 10.2414 52.4525 9.6269 52.4525 8.67107C52.4525 7.71523 53.0669 7.10077 53.9545 7.10077C54.842 7.10077 55.3882 7.71523 55.3882 8.60279C55.3882 8.73934 55.3882 8.80762 55.3882 8.87589H53.1352C53.2035 9.35381 53.5448 9.69518 54.0228 9.69518C54.4324 9.69518 54.6372 9.49035 54.7055 9.28553H55.3882C55.1834 9.83172 54.7055 10.2414 53.9545 10.2414ZM53.1352 8.39797H54.7738C54.7738 7.92006 54.3641 7.64696 53.9545 7.64696C53.5448 7.64696 53.2035 7.92006 53.1352 8.39797Z" fill="white"/>
<path d="M58.8022 10.2413C57.9146 10.2413 57.3002 9.62684 57.3002 8.67101C57.3002 7.71517 57.9829 7.10071 58.8022 7.10071C59.6898 7.10071 60.3042 7.71517 60.3042 8.67101C60.3725 9.62684 59.6215 10.2413 58.8022 10.2413ZM58.8022 9.69512C59.2801 9.69512 59.758 9.35375 59.758 8.67101C59.758 7.98827 59.3484 7.6469 58.8705 7.6469C58.3926 7.6469 57.9829 7.98827 57.9829 8.67101C57.9146 9.35375 58.3243 9.69512 58.8022 9.69512Z" fill="white"/>
<path d="M63.1032 8.46625C63.1032 7.92006 62.8301 7.64696 62.3522 7.64696C61.8743 7.64696 61.6012 7.92006 61.6012 8.46625V10.1731H60.9867V7.16904H61.6012V7.51041C61.806 7.23732 62.1473 7.10077 62.4887 7.10077C63.1715 7.10077 63.7176 7.51041 63.7176 8.39797V10.1731H63.1032V8.46625Z" fill="white"/>
<path d="M66.0391 7.64696H65.6978V7.16904H66.0391V6.41803H66.6536V7.16904H67.4046V7.64696H66.6536V9.28553C66.6536 9.49035 66.7219 9.6269 66.995 9.6269H67.4046V10.1731H66.9267C66.3805 10.1731 66.0391 9.96827 66.0391 9.35381V7.64696Z" fill="white"/>
<path d="M67.9507 6.14496H68.5651V7.51044C68.77 7.23734 69.1113 7.10079 69.521 7.10079C70.2037 7.10079 70.7499 7.51044 70.7499 8.398V10.1731H70.1355V8.46627C70.1355 7.92008 69.8624 7.64698 69.3844 7.64698C68.9065 7.64698 68.6334 7.92008 68.6334 8.46627V10.1731H68.019V6.14496H67.9507Z" fill="white"/>
<path d="M72.798 10.2413C71.9104 10.2413 71.296 9.62684 71.296 8.67101C71.296 7.71517 71.9104 7.10071 72.798 7.10071C73.6855 7.10071 74.2317 7.71517 74.2317 8.60273C74.2317 8.73928 74.2317 8.80755 74.2317 8.87583H71.9104C71.9787 9.35375 72.3201 9.69512 72.798 9.69512C73.2076 9.69512 73.4125 9.49029 73.4807 9.28547H74.1635C74.0269 9.83166 73.549 10.2413 72.798 10.2413ZM71.9787 8.39791H73.6173C73.6173 7.91999 73.2076 7.6469 72.798 7.6469C72.3201 7.6469 72.047 7.91999 71.9787 8.39791Z" fill="white"/>
<path d="M33.0627 21.4384H29.7173V13.1773H32.8579C34.633 13.1773 35.5206 14.1331 35.5206 15.2938C35.5206 16.3179 34.9061 16.9324 34.0868 17.2055C34.9744 17.342 35.6571 18.2296 35.6571 19.2537C35.7937 20.4826 34.7696 21.4384 33.0627 21.4384ZM32.7896 14.2697H31.0828V16.6593H32.7896C33.6772 16.6593 34.2234 16.2496 34.2234 15.4986C34.2234 14.7476 33.6772 14.2697 32.7896 14.2697ZM32.9262 17.7517H31.151V20.3461H32.9944C33.882 20.3461 34.4965 19.8681 34.4965 19.0489C34.4282 18.2978 33.8137 17.7517 32.9262 17.7517Z" fill="white"/>
<path d="M38.3197 21.4385H36.9542V14.8842H38.3197V15.84C38.7293 15.1573 39.3438 14.7476 40.2996 14.7476V16.1814H39.9583C38.9342 16.1814 38.3197 16.591 38.3197 18.0248V21.4385Z" fill="white"/>
<path d="M44.1232 21.5751C42.2798 21.5751 40.846 20.2097 40.846 18.1614C40.846 16.1132 42.348 14.7477 44.1914 14.7477C46.0348 14.7477 47.5368 16.0449 47.5368 18.1614C47.5368 20.2779 45.9665 21.5751 44.1232 21.5751ZM44.1232 20.4145C45.1473 20.4145 46.1714 19.6635 46.1714 18.2297C46.1714 16.7277 45.2155 16.0449 44.1914 16.0449C43.1673 16.0449 42.2798 16.7277 42.2798 18.2297C42.2115 19.6635 43.099 20.4145 44.1232 20.4145Z" fill="white"/>
<path d="M47.8096 14.8842H49.175L50.5405 20.1412L51.906 14.8842H53.3398L54.7052 20.1412L56.0707 14.8842H57.4362L55.388 21.4384H53.9542L52.657 16.591L51.3598 21.4384H49.9261L47.8096 14.8842Z" fill="white"/>
<path d="M60.5088 21.575C58.9385 21.575 57.8461 20.6192 57.7778 19.4585H59.2116C59.2799 20.0047 59.7578 20.4144 60.5088 20.4144C61.3281 20.4144 61.7377 20.073 61.7377 19.5951C61.7377 18.2979 57.9144 19.0489 57.9144 16.6593C57.9144 15.6352 58.8702 14.7476 60.4405 14.7476C61.9425 14.7476 62.8984 15.5669 62.9666 16.8641H61.6012C61.5329 16.3179 61.1232 15.9083 60.3722 15.9083C59.6212 15.9083 59.2799 16.1814 59.2799 16.6593C59.2799 17.9565 62.9666 17.2738 63.0349 19.5951C62.9666 20.7557 62.0108 21.575 60.5088 21.575Z" fill="white"/>
<path d="M66.9945 21.5751C65.0828 21.5751 63.7173 20.2097 63.7173 18.1614C63.7173 16.1132 65.0828 14.7477 66.9945 14.7477C68.8379 14.7477 70.2034 16.0449 70.2034 17.9566C70.2034 18.1614 70.2034 18.3663 70.1351 18.6394H65.0828C65.1511 19.7317 65.9704 20.4145 66.9262 20.4145C67.7455 20.4145 68.2234 20.0048 68.4965 19.5269H69.9303C69.6572 20.6876 68.6331 21.5751 66.9945 21.5751ZM65.1511 17.6152H68.7696C68.7696 16.5911 67.9503 15.9767 66.9262 15.9767C66.0387 15.9084 65.2876 16.5229 65.1511 17.6152Z" fill="white"/>
<path d="M72.5933 21.4385H71.2278V14.8842H72.5933V15.84C73.0029 15.1573 73.6174 14.7476 74.5732 14.7476V16.1814H74.2318C73.2077 16.1814 72.5933 16.591 72.5933 18.0248V21.4385Z" fill="white"/>
</g>
<defs>
<clipPath id="clip0_2509_47022">
<rect width="93.4195" height="27.3095" fill="white" transform="translate(0.580383 0.751221)"/>
</clipPath>
</defs>
</svg>
