<svg width="104" height="32" viewBox="0 0 104 32" fill="none" xmlns="http://www.w3.org/2000/svg">
<path d="M34.4939 23.5129V26.693H34.2939V25.153H32.4299V26.693H32.23V23.5129H32.4299V24.98H34.2869V23.5129H34.4939Z" fill="#7E7E7E"/>
<path d="M37.4249 25.5419H35.3009C35.3004 25.7373 35.3503 25.9296 35.4459 26.1C35.5307 26.2453 35.6554 26.3632 35.8051 26.44C35.9548 26.5167 36.1207 26.5558 36.2889 26.554C36.5052 26.5619 36.7181 26.4995 36.8959 26.376C37.0575 26.259 37.1679 26.0842 37.204 25.888H37.4159C37.3729 26.1303 37.2407 26.3476 37.045 26.497C36.8268 26.6583 36.5601 26.7405 36.2889 26.73C36.0733 26.7337 35.8606 26.6805 35.672 26.576C35.4903 26.4733 35.3423 26.3201 35.246 26.1349C35.1454 25.9254 35.0931 25.6959 35.0931 25.4634C35.0931 25.231 35.1454 25.0015 35.246 24.7919C35.3414 24.6075 35.4889 24.4552 35.67 24.3539C35.8604 24.2504 36.0742 24.1981 36.2909 24.2019C36.5055 24.1964 36.7177 24.2489 36.9049 24.3539C37.0733 24.4468 37.2121 24.5855 37.3051 24.7539C37.395 24.9204 37.4417 25.1067 37.441 25.2959C37.435 25.4049 37.4319 25.4869 37.4249 25.5419ZM37.1139 24.8219C37.0343 24.6766 36.9123 24.5591 36.764 24.485C36.6147 24.4128 36.4509 24.3752 36.285 24.3752C36.1191 24.3752 35.9554 24.4128 35.806 24.485C35.6574 24.5618 35.5329 24.6784 35.4469 24.8219C35.3508 24.99 35.3002 25.1803 35.2999 25.3739H37.2301C37.2463 25.1823 37.2063 24.9902 37.1151 24.821L37.1139 24.8219Z" fill="#7E7E7E"/>
<path d="M38.0529 24.794C38.1479 24.6101 38.2943 24.4576 38.474 24.3549C38.6612 24.2504 38.8727 24.1974 39.087 24.201C39.3223 24.1938 39.5537 24.2605 39.7489 24.3919C39.9225 24.5102 40.0553 24.6792 40.129 24.8759V24.2329H40.329V26.6919H40.129V26.045C40.0553 26.2449 39.921 26.4168 39.745 26.5369C39.5508 26.6692 39.3197 26.7367 39.0848 26.7299C38.8698 26.7335 38.658 26.6793 38.4711 26.5729C38.2907 26.4688 38.1443 26.3146 38.0499 26.1289C37.9493 25.9208 37.8971 25.6926 37.8971 25.4615C37.8971 25.2303 37.9493 25.0021 38.0499 24.794H38.0529ZM39.9969 24.894C39.9135 24.7354 39.787 24.6037 39.632 24.514C39.4746 24.4242 39.296 24.3779 39.1149 24.3799C38.9316 24.3762 38.7506 24.4207 38.59 24.509C38.4378 24.5962 38.3147 24.7263 38.236 24.883C38.1481 25.0631 38.1046 25.2616 38.109 25.462C38.1037 25.6624 38.1473 25.8611 38.236 26.0409C38.3154 26.1981 38.4391 26.3284 38.5919 26.4159C38.7519 26.5053 38.9326 26.5508 39.1158 26.5479C39.2972 26.55 39.476 26.5042 39.6339 26.415C39.7896 26.3256 39.9163 26.1933 39.9989 26.034C40.0902 25.857 40.1356 25.66 40.131 25.461C40.1359 25.2632 40.0904 25.0673 39.9989 24.8919L39.9969 24.894Z" fill="#7E7E7E"/>
<path d="M41.2571 23.34V26.692H41.0569V23.34H41.2571Z" fill="#7E7E7E"/>
<path d="M42.2869 24.407V26.033C42.2722 26.1657 42.308 26.2992 42.387 26.407C42.4874 26.4853 42.6144 26.5212 42.741 26.507H43.0129V26.689H42.7048C42.6199 26.6961 42.5343 26.6864 42.4531 26.6603C42.3719 26.6342 42.2968 26.5923 42.2319 26.537C42.1186 26.3962 42.0641 26.217 42.0798 26.037V24.407H41.709V24.23H42.0798V23.604H42.28V24.23H43.01V24.407H42.28H42.2869Z" fill="#7E7E7E"/>
<path d="M45.359 24.452C45.4574 24.5594 45.5328 24.6857 45.5804 24.8232C45.6281 24.9608 45.647 25.1068 45.6361 25.252V26.693H45.4359V25.266C45.4525 25.0216 45.3729 24.7804 45.214 24.594C45.1359 24.5153 45.0422 24.454 44.9388 24.4138C44.8355 24.3737 44.7249 24.3556 44.6141 24.361C44.4961 24.3553 44.378 24.3751 44.2682 24.4187C44.1583 24.4623 44.059 24.5289 43.9769 24.614C43.8041 24.8245 43.719 25.0934 43.7391 25.365V26.693H43.5389V23.34H43.7391V24.7529C43.8032 24.5753 43.9267 24.4255 44.089 24.329C44.2592 24.2292 44.4537 24.1783 44.651 24.182C44.7811 24.1773 44.9107 24.1987 45.0323 24.2451C45.154 24.2915 45.2651 24.3619 45.359 24.452Z" fill="#7E7E7E"/>
<path d="M46.3589 24.789C46.454 24.6054 46.6003 24.4532 46.7801 24.351C46.9694 24.2474 47.1823 24.1951 47.398 24.199C47.6699 24.1877 47.9375 24.2692 48.157 24.43C48.3542 24.583 48.4864 24.8048 48.5272 25.051H48.314C48.2822 24.8504 48.1723 24.6705 48.0081 24.551C47.8303 24.4257 47.6164 24.3618 47.399 24.369C47.2273 24.3669 47.0579 24.4078 46.9061 24.488C46.7536 24.5723 46.6297 24.7001 46.5501 24.855C46.4626 25.043 46.4173 25.2477 46.4173 25.455C46.4173 25.6623 46.4626 25.8671 46.5501 26.055C46.6304 26.2092 46.7542 26.3364 46.9061 26.421C47.078 26.5102 47.2707 26.5518 47.4642 26.5414C47.6576 26.5311 47.8448 26.4691 48.0062 26.362C48.0875 26.3029 48.1563 26.2283 48.2088 26.1425C48.2613 26.0567 48.2964 25.9614 48.3121 25.862H48.525C48.4831 26.108 48.3509 26.3295 48.1541 26.483C47.9365 26.6457 47.6696 26.729 47.398 26.7189C47.182 26.7233 46.9688 26.6702 46.7801 26.565C46.5997 26.4622 46.4533 26.3089 46.3589 26.124C46.2537 25.9159 46.2014 25.6851 46.2061 25.452C46.2013 25.2217 46.2537 24.9939 46.3589 24.789Z" fill="#7E7E7E"/>
<path d="M49.15 24.794C49.2452 24.6102 49.3913 24.4577 49.5709 24.3549C49.7581 24.2503 49.9696 24.1973 50.184 24.201C50.4192 24.1938 50.6508 24.2605 50.8461 24.3919C51.02 24.5101 51.1529 24.6791 51.2269 24.8759V24.2329H51.4271V26.6919H51.2269V26.045C51.1529 26.2448 51.019 26.4166 50.8431 26.5369C50.649 26.6692 50.4178 26.7368 50.183 26.7299C49.9679 26.7335 49.7559 26.6793 49.569 26.5729C49.3889 26.4687 49.2431 26.3145 49.149 26.1289C49.0482 25.9209 48.9957 25.6927 48.9957 25.4615C48.9957 25.2303 49.0482 25.0021 49.149 24.794H49.15ZM51.0941 24.894C51.0107 24.7354 50.8842 24.6037 50.7291 24.514C50.5718 24.4242 50.3932 24.3779 50.212 24.3799C50.0288 24.3762 49.8478 24.4207 49.6871 24.509C49.5349 24.596 49.4117 24.7261 49.3331 24.883C49.2489 25.0644 49.2052 25.262 49.2052 25.462C49.2052 25.662 49.2489 25.8595 49.3331 26.0409C49.4119 26.1982 49.5354 26.3287 49.6881 26.4159C49.8478 26.5051 50.0282 26.5506 50.2111 26.5479C50.3924 26.5501 50.5713 26.5043 50.7291 26.415C50.885 26.3258 51.0117 26.1935 51.0941 26.034C51.1851 25.8569 51.2306 25.66 51.2269 25.461C51.2315 25.2633 51.1866 25.0676 51.0961 24.8919L51.0941 24.894Z" fill="#7E7E7E"/>
<path d="M52.6768 24.3249C52.856 24.2234 53.0603 24.1739 53.2661 24.1819V24.3949H53.1968C52.9782 24.3873 52.765 24.4607 52.5972 24.6009C52.5103 24.6885 52.4435 24.794 52.4019 24.9101C52.3602 25.0262 52.3446 25.1501 52.356 25.2729V26.6909H52.1558V24.2319H52.356V24.74C52.4097 24.5676 52.5235 24.4203 52.6768 24.3249Z" fill="#7E7E7E"/>
<path d="M55.92 25.5418H53.796C53.7955 25.7372 53.8454 25.9295 53.941 26.0999C54.0255 26.2451 54.1496 26.363 54.299 26.4399C54.4487 26.5165 54.6147 26.5556 54.7828 26.5539C54.9994 26.562 55.2132 26.4996 55.3912 26.3759C55.5529 26.2592 55.6626 26.0842 55.6979 25.8879H55.9113C55.8676 26.1302 55.7349 26.3475 55.5392 26.4969C55.3205 26.658 55.0533 26.7402 54.7819 26.7299C54.5666 26.7335 54.3544 26.6803 54.1661 26.5759C53.9847 26.4732 53.8368 26.3199 53.7408 26.1348C53.6404 25.9252 53.5885 25.6958 53.5885 25.4633C53.5885 25.2309 53.6404 25.0014 53.7408 24.7918C53.8365 24.6073 53.9846 24.455 54.1661 24.3538C54.3565 24.2502 54.5706 24.1979 54.7872 24.2019C55.0015 24.1969 55.2129 24.2493 55.4 24.3538C55.5685 24.4467 55.7071 24.5854 55.7999 24.7539C55.8903 24.9202 55.9376 25.1066 55.9371 25.2959C55.9291 25.4049 55.926 25.4868 55.92 25.5418ZM55.609 24.8219C55.5291 24.6764 55.4065 24.5589 55.2579 24.4849C55.1093 24.4106 54.9451 24.3728 54.7789 24.3748C54.6129 24.3735 54.4488 24.4113 54.2999 24.4849C54.1513 24.5613 54.0273 24.6781 53.942 24.8219C53.8463 24.9901 53.7957 25.1803 53.795 25.3739H55.7252C55.7386 25.1823 55.6983 24.9909 55.609 24.8209V24.8219Z" fill="#7E7E7E"/>
<path d="M59.5811 25.877H58.0718L57.772 26.6919H57.5508L58.7202 23.5829H58.9468L60.1118 26.6919H59.8901L59.5811 25.877ZM59.519 25.705L58.8291 23.8529L58.1372 25.705H59.519Z" fill="#7E7E7E"/>
<path d="M62.4231 24.4519C62.5214 24.5592 62.5966 24.6856 62.6443 24.8232C62.6919 24.9608 62.7108 25.1066 62.7 25.2518V26.6928H62.4998V25.2658C62.5162 25.0214 62.4369 24.7803 62.2781 24.5938C62.1999 24.5151 62.106 24.4538 62.0027 24.4136C61.8993 24.3735 61.7887 24.3555 61.678 24.3608C61.5598 24.3552 61.4418 24.3749 61.3318 24.4185C61.2218 24.4622 61.1221 24.5288 61.0398 24.6138C60.8675 24.8245 60.7828 25.0934 60.803 25.3648V26.6928H60.6028V24.2329H60.803V24.7548C60.8659 24.5778 60.9884 24.428 61.1492 24.3309C61.3186 24.2309 61.5125 24.1799 61.7092 24.1838C61.8402 24.1781 61.9708 24.1989 62.0935 24.2449C62.2162 24.291 62.3283 24.3614 62.4231 24.4519Z" fill="#7E7E7E"/>
<path d="M65.317 24.2319L63.8849 27.8469H63.6769L64.1349 26.6919L63.1031 24.2329H63.3248L64.2491 26.4659L65.109 24.2329L65.317 24.2319Z" fill="#7E7E7E"/>
<path d="M66.0521 24.407V26.033C66.0373 26.1658 66.0726 26.2993 66.1517 26.407C66.252 26.4855 66.3792 26.5214 66.5057 26.507H66.7821V26.689H66.476C66.391 26.6961 66.3057 26.6864 66.2245 26.6603C66.1433 26.6342 66.0677 26.5923 66.0028 26.537C65.8895 26.3962 65.8352 26.217 65.851 26.037V24.407H65.476V24.23H65.8461V23.604H66.0458V24.23H66.7748V24.407H66.0468H66.0521Z" fill="#7E7E7E"/>
<path d="M67.28 23.637C67.263 23.6202 67.2501 23.6 67.2414 23.5778C67.2328 23.5555 67.229 23.5318 67.2302 23.508C67.2296 23.4845 67.2338 23.4612 67.2424 23.4394C67.251 23.4175 67.2635 23.3976 67.28 23.3809C67.2959 23.3647 67.3152 23.352 67.3362 23.3434C67.3571 23.3348 67.3794 23.3306 67.4021 23.331C67.4249 23.3308 67.4474 23.3351 67.4685 23.3437C67.4896 23.3522 67.5089 23.3649 67.5251 23.3809C67.5414 23.3977 67.5541 23.4177 67.5627 23.4395C67.5713 23.4613 67.5759 23.4845 67.5754 23.508C67.5767 23.5312 67.5729 23.5544 67.5647 23.5762C67.5565 23.598 67.5438 23.6178 67.5276 23.6344C67.5113 23.6511 67.492 23.6642 67.4704 23.6729C67.4489 23.6816 67.4253 23.6857 67.4021 23.685C67.3568 23.6853 67.313 23.6681 67.28 23.637ZM67.5012 24.232V26.6919H67.301V24.232H67.5012Z" fill="#7E7E7E"/>
<path d="M71.8262 24.4519C71.9216 24.5608 71.9942 24.6877 72.04 24.8251C72.0859 24.9624 72.1036 25.1075 72.0928 25.2519V26.693H71.8931V25.266C71.9101 25.0234 71.8348 24.7833 71.6821 24.594C71.6088 24.5154 71.5191 24.4537 71.4194 24.4134C71.3197 24.3732 71.2123 24.3553 71.105 24.3609C70.9898 24.3565 70.8749 24.3778 70.769 24.4233C70.6632 24.4688 70.5692 24.5373 70.4932 24.6239C70.3258 24.8408 70.2437 25.1115 70.2622 25.3849V26.694H70.062V25.2669C70.0788 25.0242 70.0031 24.7841 69.8501 24.595C69.7768 24.5163 69.6871 24.4547 69.5874 24.4144C69.4877 24.3742 69.3803 24.3563 69.2729 24.3619C69.1578 24.3574 69.0429 24.3785 68.937 24.4241C68.8311 24.4696 68.7371 24.5382 68.6611 24.6249C68.4933 24.8416 68.4108 25.1125 68.4292 25.386V26.6949H68.229V24.2359H68.4292V24.7699C68.4892 24.5899 68.6082 24.4355 68.7671 24.3319C68.9281 24.2319 69.1147 24.1806 69.3042 24.1839C69.5106 24.1781 69.713 24.2391 69.8818 24.3579C70.0504 24.4842 70.1685 24.6665 70.2148 24.8719C70.2584 24.6648 70.3779 24.4814 70.5498 24.3579C70.7209 24.2398 70.925 24.1789 71.1328 24.1839C71.2605 24.1785 71.3881 24.1995 71.5073 24.2456C71.6266 24.2917 71.7353 24.3619 71.8262 24.4519Z" fill="#7E7E7E"/>
<path d="M75.0002 25.5419H72.8762C72.8756 25.7371 72.9247 25.9294 73.0198 26.1C73.1044 26.2454 73.2294 26.3634 73.3792 26.4399C73.5289 26.5166 73.6949 26.5557 73.863 26.5539C74.079 26.5616 74.2915 26.4992 74.469 26.376C74.6307 26.2591 74.7412 26.0842 74.7771 25.8879H74.989C74.946 26.1305 74.8131 26.3479 74.6169 26.4969C74.3993 26.6585 74.133 26.7408 73.8621 26.73C73.6464 26.7336 73.4335 26.6805 73.2449 26.5759C73.0633 26.4731 72.9156 26.3199 72.8191 26.1349C72.7184 25.9253 72.6658 25.6958 72.6658 25.4634C72.6658 25.2309 72.7184 25.0014 72.8191 24.7919C72.9148 24.6077 73.062 24.4555 73.2429 24.3539C73.4333 24.2505 73.6474 24.1981 73.864 24.2019C74.0786 24.1967 74.2904 24.2492 74.4778 24.3539C74.6463 24.4466 74.7854 24.5854 74.8782 24.7539C74.9687 24.9201 75.0156 25.1066 75.0149 25.2959C75.0079 25.4049 75.0052 25.4869 75.0002 25.5419ZM74.6892 24.8219C74.6092 24.6765 74.4866 24.559 74.3381 24.485C74.1892 24.4105 74.0246 24.3727 73.8582 24.3749C73.6924 24.3736 73.5287 24.4114 73.3801 24.485C73.2318 24.5614 73.1081 24.6782 73.0232 24.8219C72.9264 24.9897 72.8758 25.1801 72.8762 25.3739H74.8059C74.8193 25.1824 74.7794 24.9909 74.6902 24.8209L74.6892 24.8219Z" fill="#7E7E7E"/>
<path d="M78.6599 25.877H77.1521L76.8518 26.6919H76.6301L77.7991 23.5829H78.0261L79.1912 26.6919H78.968L78.6599 25.877ZM78.5959 25.705L77.906 23.8529L77.2141 25.705H78.5959Z" fill="#7E7E7E"/>
<path d="M81.5022 24.452C81.6003 24.5594 81.6754 24.6858 81.7229 24.8234C81.7704 24.961 81.7891 25.1068 81.7781 25.2519V26.6929H81.5779V25.2659C81.5941 25.0214 81.5144 24.7802 81.3552 24.5939C81.2771 24.5152 81.1832 24.4538 81.0798 24.4136C80.9765 24.3735 80.8659 24.3555 80.7551 24.3609C80.6371 24.3553 80.5193 24.375 80.4094 24.4186C80.2996 24.4623 80.2 24.5288 80.1179 24.6139C79.9453 24.8245 79.8603 25.0933 79.8801 25.3649V26.6929H79.6799V24.233H79.8801V24.7549C79.9433 24.5777 80.0656 24.428 80.2268 24.331C80.3959 24.231 80.5895 24.18 80.7859 24.1839C80.9171 24.1782 81.0481 24.1991 81.1711 24.2452C81.2941 24.2912 81.4069 24.3615 81.5022 24.452Z" fill="#7E7E7E"/>
<path d="M84.3948 24.2319L82.9641 27.8469H82.7561L83.2141 26.6919L82.1819 24.2329H82.4041L83.3279 26.4659L84.1877 24.2329L84.3948 24.2319Z" fill="#7E7E7E"/>
<path d="M88.045 24.2319L87.2701 26.6909H87.0758L86.2921 24.5129L85.5031 26.6909H85.3092L84.5338 24.2319H84.7472L85.4088 26.4619L86.1989 24.2319H86.3932L87.1769 26.4519L87.838 24.2319H88.045Z" fill="#7E7E7E"/>
<path d="M90.295 24.452C90.3936 24.5593 90.4691 24.6856 90.5167 24.8232C90.5644 24.9609 90.583 25.1067 90.5719 25.252V26.693H90.3717V25.266C90.3881 25.0216 90.3087 24.7805 90.15 24.594C90.0719 24.5154 89.978 24.454 89.8746 24.4138C89.7713 24.3737 89.6607 24.3557 89.5499 24.361C89.4319 24.3555 89.3141 24.3752 89.2042 24.4188C89.0944 24.4624 88.9948 24.529 88.9127 24.614C88.7407 24.8249 88.656 25.0936 88.6759 25.365V26.693H88.4757V23.34H88.6759V24.7529C88.7398 24.5755 88.8632 24.4257 89.025 24.329C89.1956 24.2291 89.3904 24.1783 89.588 24.182C89.7179 24.1773 89.8474 24.1987 89.9689 24.2451C90.0903 24.2915 90.2013 24.3619 90.295 24.452Z" fill="#7E7E7E"/>
<path d="M93.4761 25.5419H91.3521C91.3515 25.7372 91.4015 25.9296 91.4971 26.1C91.5817 26.2453 91.7062 26.3633 91.856 26.4399C92.0057 26.5165 92.1717 26.5556 92.3398 26.5539C92.5561 26.5618 92.7695 26.4994 92.9473 26.376C93.1088 26.2589 93.2187 26.0841 93.2549 25.8879H93.4673C93.424 26.1301 93.2916 26.3474 93.0962 26.4969C92.8778 26.6578 92.6109 26.74 92.3398 26.73C92.1242 26.7336 91.9118 26.6804 91.7231 26.5759C91.5416 26.4731 91.3934 26.3199 91.2969 26.1349C91.1964 25.9253 91.1445 25.6958 91.1445 25.4634C91.1445 25.2309 91.1964 25.0015 91.2969 24.7919C91.3922 24.6078 91.5396 24.4556 91.7202 24.3539C91.911 24.2504 92.1253 24.1981 92.3423 24.2019C92.5569 24.1967 92.7687 24.2492 92.9561 24.3539C93.1242 24.4472 93.2627 24.5858 93.356 24.7539C93.4458 24.9204 93.4928 25.1067 93.4922 25.2959C93.4852 25.4049 93.4831 25.4869 93.4761 25.5419ZM93.167 24.8219C93.087 24.6765 92.9645 24.559 92.8159 24.485C92.6667 24.4124 92.5029 24.3746 92.3369 24.3746C92.1709 24.3746 92.0072 24.4124 91.8579 24.485C91.7093 24.5611 91.5855 24.6779 91.501 24.8219C91.4039 24.9896 91.3529 25.1801 91.353 25.3739H93.2832C93.2969 25.1823 93.2565 24.9908 93.167 24.8209V24.8219Z" fill="#7E7E7E"/>
<path d="M94.6049 24.325C94.7838 24.2238 94.9873 24.1742 95.1927 24.1819V24.3949H95.1249C94.9064 24.3876 94.6927 24.461 94.5248 24.601C94.4382 24.6888 94.3719 24.7944 94.3304 24.9104C94.289 25.0265 94.2737 25.1503 94.285 25.273V26.691H94.0848V24.232H94.285V24.74C94.3392 24.5682 94.4524 24.4211 94.6049 24.325Z" fill="#7E7E7E"/>
<path d="M97.8481 25.5418H95.7241C95.7233 25.7371 95.7729 25.9294 95.8682 26.0999C95.9525 26.2452 96.0767 26.3631 96.2261 26.4399C96.3758 26.5166 96.5418 26.5557 96.71 26.5539C96.9262 26.5618 97.1392 26.4994 97.3169 26.3759C97.4788 26.2592 97.5893 26.0843 97.625 25.8879H97.8369C97.7936 26.1301 97.6612 26.3474 97.4658 26.4969C97.2471 26.658 96.9804 26.7402 96.709 26.7299C96.4937 26.7334 96.2811 26.6803 96.0928 26.5759C95.9112 26.473 95.7635 26.3198 95.667 26.1348C95.5668 25.9252 95.5146 25.6957 95.5146 25.4633C95.5146 25.2309 95.5668 25.0015 95.667 24.7918C95.763 24.6076 95.9105 24.4554 96.0918 24.3538C96.2822 24.2504 96.4962 24.1981 96.7129 24.2019C96.9271 24.1969 97.1391 24.2493 97.3262 24.3538C97.4947 24.4467 97.6333 24.5854 97.7261 24.7539C97.8169 24.92 97.8637 25.1065 97.8628 25.2959C97.8568 25.4049 97.8551 25.4868 97.8481 25.5418ZM97.5381 24.8219C97.458 24.6762 97.3351 24.5586 97.186 24.4849C97.0374 24.4106 96.8732 24.3728 96.707 24.3748C96.5409 24.3734 96.3768 24.4112 96.228 24.4849C96.0797 24.5615 95.956 24.6782 95.8711 24.8219C95.775 24.99 95.7244 25.1802 95.7241 25.3739H97.6528C97.668 25.1823 97.6284 24.9905 97.5381 24.8209V24.8219Z" fill="#7E7E7E"/>
<path d="M0.0460269 4.42496C0.0723715 4.03434 0.247608 3.66876 0.535651 3.4036C0.823694 3.13844 1.20254 2.99396 1.594 2.99997H23.788C24.4011 2.93394 25.0175 3.08928 25.526 3.43796C26.143 3.97596 26.002 4.75394 26.009 5.48594C26.009 5.76494 26.009 6.04293 26.009 6.32193C26.009 7.20127 26.0127 8.08097 26.02 8.96097C26.026 10.3316 26.0317 11.7019 26.037 13.0719V13.081L26.004 26.453V27.417C26.004 28.617 24.894 29.027 23.877 28.998C23.354 28.984 22.833 28.9649 22.311 28.9649H4.00098C3.28298 28.9649 2.564 28.9623 1.844 28.9569C1.56192 28.9814 1.27809 28.9372 1.01685 28.828C0.755614 28.7188 0.524752 28.5479 0.344 28.3299C0.0242363 27.7657 -0.0912765 27.1084 0.0169741 26.469C0.0559741 25.721 0.0429751 24.9689 0.0429751 24.2199V13.664C0.0429751 13.664 0.0460269 4.43096 0.0460269 4.42496Z" fill="#136AFB"/>
<path d="M14.6751 9.97502C14.6571 9.89702 14.6361 9.82002 14.6101 9.74302C14.292 8.85859 13.6955 8.10128 12.9101 7.585C12.8416 7.53819 12.7639 7.50632 12.6823 7.4915C12.6006 7.47668 12.5167 7.47925 12.436 7.49901C11.0194 6.62006 9.36926 6.19218 7.70405 6.27202C5.53405 6.47202 5.40405 7.47199 5.18305 9.10899C5.08673 9.16993 5.00878 9.2559 4.95753 9.35771C4.90627 9.45951 4.88368 9.57333 4.8921 9.68699C4.89831 9.78598 4.92833 9.88204 4.97969 9.9669C5.03104 10.0518 5.10215 10.1229 5.18696 10.1744C5.27177 10.2258 5.36776 10.2559 5.46675 10.2623C5.56573 10.2686 5.66479 10.2508 5.75544 10.2106C5.84609 10.1703 5.92567 10.1087 5.98738 10.031C6.04908 9.95339 6.09109 9.86197 6.10981 9.76457C6.12854 9.66717 6.12343 9.56672 6.09492 9.47172C6.06641 9.37672 6.01532 9.29003 5.94605 9.21904C6.15705 7.61904 6.21608 7.19299 7.77308 7.04899C9.25983 6.99278 10.7302 7.37537 12.001 8.14903C12.0125 8.22528 12.0391 8.2985 12.0791 8.36442C12.119 8.43034 12.1717 8.48762 12.2341 8.533C12.6059 8.71345 12.9249 8.98691 13.16 9.32683C13.3952 9.66674 13.5386 10.0616 13.5763 10.4732C13.614 10.8848 13.5448 11.2991 13.3753 11.6761C13.2059 12.0531 12.9419 12.38 12.6091 12.625C12.5027 12.7393 12.4458 12.891 12.4511 13.047C11.3482 14.0415 9.97612 14.6879 8.50709 14.905C6.95109 15.05 6.81408 14.638 6.30708 13.113L6.3011 13.099C6.37484 12.9888 6.40998 12.8573 6.40107 12.725C6.39352 12.6447 6.37024 12.5667 6.33253 12.4954C6.29482 12.4241 6.24341 12.3609 6.18128 12.3094C6.11916 12.258 6.04755 12.2193 5.97047 12.1955C5.89339 12.1718 5.81237 12.1635 5.73207 12.171C5.65176 12.1786 5.57375 12.2018 5.50245 12.2395C5.43115 12.2773 5.36798 12.3287 5.31654 12.3908C5.26509 12.4529 5.2264 12.5245 5.20265 12.6016C5.17889 12.6787 5.1705 12.7597 5.17805 12.84C5.18932 12.9527 5.23194 13.06 5.30104 13.1498C5.37013 13.2396 5.46302 13.3083 5.5691 13.348C6.0871 14.919 6.4031 15.869 8.5691 15.667C10.2159 15.4378 11.755 14.7166 12.9851 13.598C13.0677 13.6018 13.1503 13.5885 13.2275 13.5589C13.3048 13.5293 13.3752 13.4841 13.4341 13.426C14.1483 12.7423 14.6037 11.8324 14.7231 10.851C14.7231 10.813 14.7231 10.779 14.7291 10.741L14.6751 9.97502Z" fill="white"/>
<path d="M14.612 9.74207C14.523 9.73007 14.433 9.71811 14.342 9.70911L13.804 10.748C14.1185 10.7598 14.432 10.7932 14.742 10.848C16.2836 11.1161 17.6916 11.8914 18.7424 13.0509C19.7931 14.2104 20.4265 15.6875 20.542 17.248C20.556 17.42 20.562 17.5961 20.562 17.7711C20.562 17.9051 20.562 18.0371 20.551 18.1711C20.4559 19.8397 19.7696 21.4197 18.6151 22.6281C17.4606 23.8364 15.9134 24.5941 14.251 24.7651C14.018 24.7881 13.783 24.7981 13.542 24.7981H13.33C12.0242 24.7591 10.7553 24.3565 9.66583 23.6357C8.57637 22.915 7.70958 21.9046 7.16296 20.7181C7.10296 20.5881 7.04696 20.4561 6.99396 20.3231C6.84849 20.3578 6.69953 20.3756 6.54999 20.3761H5.89197C5.96397 20.5821 6.04597 20.7841 6.13397 20.9811C6.70468 22.2534 7.59699 23.3551 8.72296 24.1777C9.84894 25.0004 11.1697 25.5155 12.5554 25.6725C13.941 25.8294 15.3436 25.6227 16.625 25.0728C17.9064 24.5228 19.0225 23.6486 19.8633 22.5361C20.7042 21.4237 21.2407 20.1114 21.4201 18.7285C21.5995 17.3456 21.4157 15.9399 20.8866 14.6497C20.3575 13.3595 19.5015 12.2293 18.4028 11.3705C17.3042 10.5117 16.0008 9.95394 14.621 9.75208L14.612 9.74207Z" fill="white"/>
<path d="M6.24703 17.642C5.81431 17.6402 5.39786 17.8068 5.08571 18.1064C4.77357 18.4061 4.5902 18.8155 4.57436 19.2479C4.55852 19.6804 4.71144 20.102 5.00081 20.4237C5.29019 20.7454 5.69333 20.9421 6.12502 20.972C6.16602 20.972 6.20603 20.972 6.24703 20.972C6.68915 20.972 7.11318 20.7964 7.4258 20.4838C7.73842 20.1711 7.91402 19.747 7.91402 19.3049C7.91402 18.8628 7.73842 18.4388 7.4258 18.1262C7.11318 17.8136 6.68915 17.6379 6.24703 17.6379V17.642ZM6.24703 20.222C6.06309 20.2218 5.88332 20.1671 5.73049 20.0647C5.57766 19.9623 5.45865 19.817 5.38845 19.647C5.31824 19.477 5.3 19.29 5.33608 19.1096C5.37216 18.9293 5.46094 18.7636 5.59115 18.6337C5.72135 18.5037 5.88715 18.4153 6.06759 18.3796C6.24803 18.3439 6.43496 18.3627 6.60482 18.4332C6.77468 18.5038 6.91985 18.6231 7.02187 18.7761C7.1239 18.9292 7.1782 19.109 7.178 19.293C7.17787 19.4151 7.15369 19.536 7.10683 19.6488C7.05997 19.7616 6.99138 19.8641 6.90493 19.9503C6.81848 20.0366 6.71587 20.105 6.60299 20.1516C6.4901 20.1982 6.36916 20.2222 6.24703 20.222Z" fill="white"/>
<path d="M17.688 15.2161C17.6594 15.1867 17.6252 15.1633 17.5874 15.1473C17.5496 15.1314 17.509 15.1232 17.468 15.1232C17.427 15.1232 17.3864 15.1314 17.3486 15.1473C17.3108 15.1633 17.2767 15.1867 17.248 15.2161L13.896 18.567C13.7702 18.5106 13.634 18.4814 13.4961 18.4814C13.3582 18.4814 13.2219 18.5106 13.0961 18.567L11.5081 16.9801C11.4493 16.9218 11.3698 16.8891 11.287 16.8894C11.2042 16.8897 11.1249 16.9228 11.0665 16.9816C11.0082 17.0403 10.9756 17.1198 10.9758 17.2026C10.9761 17.2854 11.0092 17.3647 11.068 17.4231L12.651 19.0071C12.5829 19.1495 12.552 19.3068 12.5612 19.4644C12.5703 19.6219 12.6191 19.7745 12.7032 19.9081C12.7874 20.0416 12.904 20.1518 13.0422 20.228C13.1804 20.3043 13.3357 20.3442 13.4935 20.3442C13.6514 20.3442 13.8066 20.3043 13.9448 20.228C14.083 20.1518 14.1997 20.0416 14.2838 19.9081C14.368 19.7745 14.4169 19.6219 14.426 19.4644C14.4352 19.3068 14.4042 19.1495 14.3361 19.0071L17.6841 15.6581C17.7136 15.6294 17.737 15.5952 17.7532 15.5574C17.7693 15.5196 17.7778 15.479 17.7782 15.4379C17.7786 15.3968 17.7709 15.3561 17.7554 15.318C17.7399 15.2799 17.7169 15.2452 17.688 15.2161ZM13.718 19.6271C13.6588 19.6838 13.58 19.7155 13.498 19.7155C13.4161 19.7155 13.3373 19.6838 13.2781 19.6271C13.2346 19.5836 13.205 19.5281 13.193 19.4678C13.181 19.4075 13.1871 19.345 13.2107 19.2882C13.2342 19.2314 13.2742 19.1828 13.3253 19.1487C13.3765 19.1145 13.4365 19.0962 13.498 19.0962C13.5595 19.0962 13.6196 19.1145 13.6708 19.1487C13.7219 19.1828 13.7617 19.2314 13.7853 19.2882C13.8088 19.345 13.8151 19.4075 13.8031 19.4678C13.7911 19.5281 13.7615 19.5836 13.718 19.6271Z" fill="white"/>
<path d="M21.2109 17.2621V18.1461C21.2109 18.1509 21.2091 18.1554 21.2057 18.1588C21.2023 18.1622 21.1978 18.1641 21.193 18.1641H19.193C19.1882 18.1641 19.1837 18.1622 19.1803 18.1588C19.1769 18.1554 19.1749 18.1509 19.1749 18.1461V17.2621C19.1749 17.2573 19.1769 17.2528 19.1803 17.2494C19.1837 17.246 19.1882 17.244 19.193 17.244H21.193C21.1978 17.244 21.2023 17.246 21.2057 17.2494C21.2091 17.2528 21.2109 17.2573 21.2109 17.2621Z" fill="white"/>
<path d="M14.2209 25.4231H13.3369C13.3321 25.4231 13.3276 25.4212 13.3242 25.4178C13.3208 25.4145 13.319 25.4098 13.319 25.405V23.405C13.319 23.4003 13.3208 23.3957 13.3242 23.3923C13.3276 23.389 13.3321 23.3871 13.3369 23.3871H14.2209C14.2257 23.3871 14.2303 23.389 14.2336 23.3923C14.237 23.3957 14.2389 23.4003 14.2389 23.405V25.405C14.239 25.4074 14.2388 25.4099 14.2379 25.4121C14.2371 25.4144 14.2357 25.4164 14.234 25.4181C14.2323 25.4198 14.2303 25.4211 14.228 25.422C14.2258 25.4229 14.2233 25.4232 14.2209 25.4231Z" fill="white"/>
<path d="M32.5869 5.20889H36.5149C37.3614 5.19631 38.2032 5.33935 38.998 5.63089C39.7021 5.89277 40.3436 6.29921 40.8811 6.82395C41.4055 7.34571 41.8119 7.9738 42.073 8.66593C42.6253 10.1911 42.6253 11.8617 42.073 13.3869C41.8128 14.0772 41.4063 14.7029 40.8811 15.2209C40.3422 15.742 39.701 16.1455 38.998 16.4059C38.2032 16.6975 37.3614 16.8406 36.5149 16.8279H32.5869V5.20889ZM36.417 14.7509C36.991 14.7616 37.5625 14.6709 38.105 14.4829C38.5612 14.3237 38.9767 14.0659 39.322 13.7279C39.6504 13.3956 39.8998 12.9937 40.052 12.5519C40.3772 11.5558 40.3772 10.4821 40.052 9.48593C39.9008 9.04374 39.6512 8.64162 39.322 8.30991C38.9767 7.9719 38.5612 7.71412 38.105 7.5549C37.5625 7.3668 36.9911 7.27607 36.417 7.2869H34.7791V14.7509H36.417Z" fill="#136AFB"/>
<path d="M47.5151 8.61694C48.097 8.60951 48.6746 8.71687 49.215 8.93292C49.715 9.13149 50.169 9.43053 50.5488 9.81152C50.9286 10.1925 51.226 10.6474 51.423 11.1479C51.845 12.2444 51.845 13.4585 51.423 14.5549C51.226 15.0555 50.9286 15.5104 50.5488 15.8914C50.169 16.2723 49.715 16.5713 49.215 16.7699C48.1238 17.1921 46.9144 17.1921 45.8232 16.7699C45.3233 16.5713 44.8692 16.2723 44.4894 15.8913C44.1097 15.5103 43.8122 15.0555 43.6152 14.5549C43.1932 13.4585 43.1932 12.2444 43.6152 11.1479C43.8122 10.6474 44.1097 10.1926 44.4894 9.81158C44.8692 9.4306 45.3233 9.13154 45.8232 8.93292C46.3611 8.7179 46.9358 8.61056 47.5151 8.61694ZM47.5151 15.1249C47.7852 15.1248 48.0529 15.0725 48.3032 14.9709C48.5555 14.8696 48.7843 14.7178 48.976 14.5249C49.1771 14.3209 49.3345 14.0779 49.4382 13.8109C49.6649 13.1924 49.6649 12.5134 49.4382 11.8949C49.3345 11.6279 49.1771 11.3849 48.976 11.1809C48.7844 10.9879 48.5556 10.8361 48.3032 10.7349C48.0529 10.6332 47.7852 10.5809 47.5151 10.5809C47.2425 10.5793 46.9724 10.6316 46.7202 10.7349C46.4707 10.8378 46.2443 10.9895 46.0541 11.1809C45.8531 11.3849 45.6957 11.6279 45.592 11.8949C45.3647 12.5133 45.3647 13.1925 45.592 13.8109C45.6957 14.0779 45.8531 14.3209 46.0541 14.5249C46.2441 14.7166 46.4705 14.8684 46.7202 14.9709C46.9725 15.0739 47.2426 15.1258 47.5151 15.1239V15.1249Z" fill="#136AFB"/>
<path d="M60.644 14.7999C60.3055 15.4621 59.8061 16.0286 59.1919 16.4479C58.5001 16.8954 57.6872 17.1192 56.8638 17.0889C56.2818 17.0962 55.7045 16.9889 55.1641 16.7729C54.665 16.5715 54.2121 16.2708 53.833 15.8889C53.4557 15.5046 53.158 15.0496 52.957 14.5499C52.7409 14.0095 52.6331 13.4318 52.6406 12.8499C52.6346 12.2681 52.7423 11.6907 52.957 11.1499C53.1541 10.6493 53.4513 10.1945 53.8311 9.81353C54.2108 9.43255 54.6651 9.1335 55.165 8.93487C55.7054 8.71887 56.2828 8.61151 56.8647 8.61889C57.6845 8.59125 58.4938 8.81188 59.186 9.25189C59.7952 9.65262 60.2743 10.2221 60.5649 10.8909L58.6177 11.7029C58.4604 11.3664 58.2163 11.0778 57.9106 10.8669C57.587 10.6667 57.2114 10.5675 56.8311 10.5819C56.556 10.5795 56.2832 10.6347 56.0308 10.7439C55.7838 10.8506 55.5608 11.0053 55.374 11.1989C55.1786 11.4041 55.0268 11.647 54.9287 11.9129C54.7118 12.5218 54.7118 13.187 54.9287 13.7959C55.0229 14.0553 55.1693 14.2928 55.3584 14.4938C55.5475 14.6948 55.7756 14.8552 56.0288 14.9649C56.2812 15.0745 56.5535 15.13 56.8286 15.1279C57.2259 15.1405 57.6185 15.0362 57.957 14.8279C58.279 14.6124 58.5343 14.3115 58.6948 13.9589L60.644 14.7999Z" fill="#136AFB"/>
<path d="M64.6692 16.828V7.28601H61.4231V5.20898H70.1062V7.28601H66.8601V16.828H64.6692Z" fill="black"/>
<path d="M72.0998 7.805C71.9188 7.80592 71.7397 7.77016 71.5729 7.69996C71.4094 7.6319 71.2606 7.53274 71.1349 7.40797C71.0114 7.28469 70.9123 7.13917 70.8429 6.97901C70.7024 6.63549 70.7024 6.25052 70.8429 5.90699C70.9825 5.57993 71.2445 5.32043 71.5729 5.18397C71.824 5.08013 72.1001 5.05246 72.3668 5.10438C72.6336 5.1563 72.8791 5.28551 73.0729 5.47596C73.2014 5.60177 73.3035 5.752 73.3732 5.9178C73.4429 6.08359 73.4787 6.26162 73.4787 6.44148C73.4787 6.62133 73.4429 6.79936 73.3732 6.96516C73.3035 7.13095 73.2014 7.28119 73.0729 7.40699C72.946 7.53554 72.7943 7.63705 72.6271 7.70545C72.4599 7.77385 72.2804 7.80773 72.0998 7.805ZM71.046 16.828V8.878H73.172V16.83L71.046 16.828Z" fill="black"/>
<path d="M75.1178 8.8759H77.1178V9.91692H77.2472C77.5005 9.52314 77.8485 9.19948 78.2599 8.97588C78.6944 8.73624 79.1836 8.61325 79.6798 8.61888C80.2197 8.60024 80.7526 8.74752 81.2062 9.04088C81.5934 9.29423 81.8979 9.65543 82.0822 10.0799C82.3502 9.66057 82.7105 9.30827 83.1359 9.04991C83.635 8.7511 84.2096 8.6015 84.7911 8.61888C85.2245 8.60886 85.6549 8.68892 86.0558 8.85393C86.3981 9.00017 86.7013 9.22528 86.9401 9.51091C87.1815 9.81033 87.3602 10.1551 87.4659 10.5249C87.5883 10.9442 87.6485 11.3792 87.6442 11.8159V16.8299H85.5182V12.2049C85.5182 11.1235 85.0745 10.5823 84.1871 10.5809C83.9256 10.5758 83.6674 10.6403 83.4391 10.7679C83.2232 10.8922 83.0377 11.063 82.8961 11.2679C82.7418 11.4991 82.6266 11.7542 82.5558 12.0229C82.473 12.3297 82.4327 12.6462 82.4352 12.9639V16.8249H80.3092V12.1999C80.3092 11.1185 79.8421 10.5776 78.9088 10.5769C78.658 10.5713 78.4108 10.6361 78.1949 10.7639C77.9868 10.89 77.8091 11.0608 77.6749 11.2639C77.5256 11.4957 77.4163 11.7509 77.3512 12.0189C77.2738 12.3265 77.2355 12.6427 77.2379 12.9599V16.8209H75.1178V8.87389V8.8759Z" fill="black"/>
<path d="M96.9268 14.9189C96.5685 15.5575 96.0586 16.0981 95.4419 16.493C94.7565 16.9106 93.9638 17.1191 93.1617 17.0929C92.5867 17.0989 92.0164 16.9915 91.4829 16.777C90.9815 16.5756 90.5258 16.2748 90.1436 15.8928C89.7614 15.5108 89.4604 15.0553 89.2588 14.5539C89.0431 14.0135 88.9361 13.4358 88.9439 12.8539C88.9404 12.2954 89.0455 11.7415 89.253 11.2229C89.6489 10.213 90.4267 9.3996 91.418 8.95897C91.9416 8.72797 92.5088 8.612 93.0811 8.61894C93.6632 8.6088 94.2412 8.71626 94.7808 8.93492C95.2573 9.13099 95.6843 9.43057 96.0308 9.81194C96.3724 10.196 96.6319 10.6459 96.793 11.134C96.9702 11.6675 97.0575 12.2267 97.0518 12.7889V12.983C97.0421 13.0418 97.0366 13.1013 97.0357 13.1609C97.0241 13.2199 97.0188 13.2799 97.0191 13.34H91.0308C91.0647 13.6336 91.1562 13.9176 91.2998 14.1759C91.4279 14.4006 91.5976 14.5988 91.7998 14.7599C91.9951 14.9142 92.2183 15.0297 92.4571 15.1C92.694 15.1701 92.9399 15.2054 93.187 15.2049C93.6148 15.2216 94.0372 15.1053 94.396 14.8719C94.7103 14.6569 94.9689 14.3704 95.1509 14.0359L96.9268 14.9189ZM94.9956 11.8349C94.9778 11.6708 94.9307 11.5112 94.856 11.3639C94.7685 11.1813 94.6478 11.0164 94.5 10.8779C94.33 10.7185 94.132 10.5917 93.916 10.504C93.6498 10.4002 93.3657 10.3506 93.0801 10.358C92.6478 10.3502 92.2251 10.4875 91.8799 10.748C91.524 11.0205 91.2675 11.4024 91.1499 11.8349H94.9956Z" fill="black"/>
<path d="M97.057 20.223H32.587V20.444H97.057V20.223Z" fill="#7E7E7E"/>
<path d="M98.9269 8.51697V8.72498H98.3932V10.476H98.1368V8.72498H97.6002V8.51697H98.9269Z" fill="black"/>
<path d="M101.23 8.53088V10.4769H100.974V9.03088L100.328 10.4809H100.147L99.498 9.02789V10.4809H99.2422V8.53088H99.5181L100.238 10.1389L100.957 8.53088H101.23Z" fill="black"/>
</svg>
