<svg width="94" height="29" viewBox="0 0 94 29" fill="none" xmlns="http://www.w3.org/2000/svg">
<g clip-path="url(#clip0_2509_46967)">
<path d="M89.9687 28.0608H3.58679C1.64395 28.0608 0 26.7177 0 25.0761V3.73587C0 2.09431 1.64395 0.751221 3.58679 0.751221H89.9687C91.9115 0.751221 93.5555 2.09431 93.5555 3.73587V25.0761C93.5555 26.7177 91.9115 28.0608 89.9687 28.0608Z" fill="#15152C"/>
<path d="M46.9273 15.5252C45.2834 15.5252 44.0878 16.7191 44.0878 18.3607C44.0878 20.0022 45.4328 21.1961 46.9273 21.1961C48.5713 21.1961 49.7669 20.0022 49.7669 18.3607C49.9163 16.8683 48.5713 15.5252 46.9273 15.5252ZM46.9273 20.1514C46.0306 20.1514 45.2834 19.4053 45.2834 18.3607C45.2834 17.316 46.0306 16.5699 46.9273 16.5699C47.824 16.5699 48.5713 17.316 48.5713 18.3607C48.5713 19.5545 47.824 20.1514 46.9273 20.1514ZM40.501 15.5252C38.857 15.5252 37.6614 16.7191 37.6614 18.3607C37.6614 20.0022 39.0065 21.1961 40.501 21.1961C41.9955 21.1961 43.3405 20.0022 43.3405 18.3607C43.3405 16.7191 42.1449 15.5252 40.501 15.5252ZM40.501 20.1514C39.6043 20.1514 38.857 19.4053 38.857 18.3607C38.857 17.316 39.6043 16.5699 40.501 16.5699C41.3977 16.5699 42.1449 17.316 42.1449 18.3607C42.1449 19.4053 41.3977 20.1514 40.501 20.1514ZM33.0285 16.5699V17.7637H36.0175C35.8681 18.5099 35.7186 18.9576 35.2703 19.4053C34.8219 19.853 34.2241 20.3007 33.0285 20.3007C31.2351 20.3007 29.7406 18.9576 29.7406 17.0176C29.7406 15.0775 31.0857 13.7344 33.0285 13.7344C34.0747 13.7344 34.8219 14.1821 35.2703 14.6298L36.167 13.7344C35.4197 12.9883 34.3736 12.5406 33.0285 12.5406C30.4879 12.5406 28.3956 14.4806 28.3956 17.0176C28.3956 19.5545 30.4879 21.4945 33.0285 21.4945C34.3736 21.4945 35.4197 21.0468 36.167 20.3007C36.9142 19.5545 37.2131 18.3607 37.2131 17.4653C37.2131 17.1668 37.2131 16.8683 37.0636 16.7191L33.0285 16.5699ZM63.9646 17.4653C63.6657 16.8683 63.0679 15.6745 61.4239 15.6745C59.9294 15.6745 58.7338 16.8683 58.7338 18.5099C58.7338 20.1514 59.9294 21.3453 61.5734 21.3453C62.9184 21.3453 63.6657 20.5991 63.9646 20.1514L62.9184 19.5545C62.6195 20.0022 62.1712 20.3007 61.5734 20.3007C60.9756 20.3007 60.5272 20.0022 60.2283 19.4053L64.114 17.7637L63.9646 17.4653ZM59.9294 18.3607C59.9294 17.316 60.8261 16.7191 61.4239 16.7191C61.8723 16.7191 62.3206 17.0176 62.4701 17.316L59.9294 18.3607ZM56.791 21.1961H57.9866V12.6898H56.791V21.1961ZM54.6987 16.2714C54.3998 15.9729 53.802 15.6745 53.2042 15.6745C51.7097 15.6745 50.5141 16.8683 50.5141 18.5099C50.5141 20.1514 51.8592 21.3453 53.2042 21.3453C53.9515 21.3453 54.3998 21.0468 54.6987 20.7484H54.8482V21.1961C54.8482 22.2407 54.2504 22.9869 53.2042 22.9869C52.457 22.9869 52.0086 22.3899 51.7097 21.9422L50.6636 22.3899C50.9625 23.1361 51.8592 24.1807 53.2042 24.1807C54.6987 24.1807 55.8943 23.2853 55.8943 21.1961V15.9729H54.6987V16.2714ZM53.3537 20.1514C52.457 20.1514 51.7097 19.4053 51.7097 18.3607C51.7097 17.316 52.457 16.5699 53.3537 16.5699C54.2504 16.5699 54.9976 17.316 54.9976 18.3607C54.9976 19.4053 54.2504 20.1514 53.3537 20.1514ZM69.9426 12.6898H66.8041V21.1961H67.9997V17.913H69.7931C71.1382 17.913 72.6327 16.8683 72.6327 15.376C72.7821 13.7344 71.4371 12.6898 69.9426 12.6898ZM70.092 16.8683H68.2986V13.8837H70.092C70.9887 13.8837 71.5865 14.6298 71.5865 15.2268C71.5865 15.9729 70.9887 16.8683 70.092 16.8683ZM77.8634 15.5252C76.9667 15.5252 75.9206 15.9729 75.6217 16.7191L76.6678 17.1668C76.9667 16.7191 77.415 16.5699 77.8634 16.5699C78.4612 16.5699 79.2084 17.0176 79.2084 17.6145V17.7637C78.9095 17.6145 78.4612 17.4653 77.8634 17.4653C76.6678 17.4653 75.4722 18.0622 75.4722 19.4053C75.4722 20.4499 76.5184 21.3453 77.5645 21.3453C78.4612 21.3453 78.9095 20.8976 79.2084 20.4499H79.3579V21.0468H80.5535V17.7637C80.5535 16.4206 79.3579 15.5252 77.8634 15.5252ZM77.7139 20.1514C77.2656 20.1514 76.6678 19.853 76.6678 19.4053C76.6678 18.8084 77.4151 18.5099 78.0128 18.5099C78.6106 18.5099 78.7601 18.6591 79.2084 18.8084C79.2084 19.7037 78.4612 20.1514 77.7139 20.1514ZM85.037 15.8237L83.5425 19.5545H83.393L81.8985 15.8237H80.5535L82.7952 20.8976L81.4502 23.733H82.7952L86.382 15.8237H85.037ZM73.5294 21.1961H74.725V12.6898H73.5294V21.1961Z" fill="white"/>
<path d="M7.47261 5.97437C7.17371 6.27283 7.17371 6.5713 7.17371 6.86976V21.793C7.17371 22.2407 7.32316 22.5392 7.47261 22.6884V22.8376L15.9912 14.4806V14.1822L7.47261 5.97437Z" fill="url(#paint0_linear_2509_46967)"/>
<path d="M18.8308 17.316L15.9912 14.4806V14.1822L18.8308 11.3467H18.9802L22.4175 13.2868C23.3142 13.8837 23.3142 14.6299 22.4175 15.2268L18.8308 17.316Z" fill="url(#paint1_linear_2509_46967)"/>
<path d="M18.831 17.316L15.9914 14.4806L7.47278 22.8376C7.77168 23.1361 8.36948 23.2853 8.81783 22.9868L18.831 17.316Z" fill="url(#paint2_linear_2509_46967)"/>
<path d="M18.831 11.496L8.81783 5.97437C8.36948 5.6759 7.77168 5.6759 7.47278 6.1236L15.9914 14.4806L18.831 11.496Z" fill="url(#paint3_linear_2509_46967)"/>
<path d="M32.5803 7.16824C32.5803 8.51133 31.6836 9.40672 30.1891 9.40672H28.8441V4.92975H30.1891C31.6836 4.92975 32.5803 5.82514 32.5803 7.16824ZM30.3386 8.80979C31.3847 8.80979 31.9825 8.21286 31.9825 7.16824C31.9825 6.12361 31.3847 5.52668 30.3386 5.52668H29.5913V8.80979H30.3386Z" fill="white"/>
<path d="M34.8221 9.40678C33.776 9.40678 33.0287 8.66061 33.0287 7.61599C33.0287 6.57136 33.776 5.8252 34.8221 5.8252C35.8683 5.8252 36.6155 6.57136 36.6155 7.61599C36.6155 8.80985 35.8683 9.40678 34.8221 9.40678ZM34.8221 8.80985C35.4199 8.80985 35.8683 8.36215 35.8683 7.61599C35.8683 6.86982 35.4199 6.42213 34.8221 6.42213C34.2243 6.42213 33.776 6.86982 33.776 7.61599C33.776 8.36215 34.2243 8.80985 34.8221 8.80985Z" fill="white"/>
<path d="M36.9144 5.97437H37.6616L38.4089 8.66055L39.1561 5.97437H39.9034L40.6506 8.66055L41.3979 5.97437H42.1451L41.099 9.40671H40.3517L39.455 6.72053L38.7078 9.25748H37.9605L36.9144 5.97437Z" fill="white"/>
<path d="M44.9846 7.46669C44.9846 6.86976 44.6857 6.5713 44.0879 6.5713C43.4901 6.5713 43.1912 6.86976 43.1912 7.46669V9.40671H42.444V5.97437H43.1912V6.42206C43.4901 6.1236 43.789 5.97437 44.2374 5.97437C44.9846 5.97437 45.5824 6.42206 45.5824 7.46669V9.55595H44.8352V7.46669H44.9846Z" fill="white"/>
<path d="M46.6287 4.78052H47.376V9.40673H46.6287V4.78052Z" fill="white"/>
<path d="M49.767 9.40678C48.8703 9.40678 47.9736 8.66061 47.9736 7.61599C47.9736 6.57136 48.7209 5.8252 49.767 5.8252C50.8132 5.8252 51.5604 6.57136 51.5604 7.61599C51.5604 8.80985 50.8132 9.40678 49.767 9.40678ZM49.767 8.80985C50.3648 8.80985 50.8132 8.36215 50.8132 7.61599C50.8132 6.86982 50.3648 6.42213 49.767 6.42213C49.1692 6.42213 48.7209 6.86982 48.7209 7.61599C48.7209 8.36215 49.1692 8.80985 49.767 8.80985Z" fill="white"/>
<path d="M53.6528 5.8252C54.2506 5.8252 54.6989 6.12366 54.8484 6.42213V5.97443H55.5956V9.40678H54.8484V8.80985C54.5495 9.10831 54.2506 9.40678 53.6528 9.40678C52.7561 9.40678 52.0089 8.66061 52.0089 7.61599C52.0089 6.57136 52.7561 5.8252 53.6528 5.8252ZM53.8022 6.42213C53.2044 6.42213 52.7561 6.86982 52.7561 7.61599C52.7561 8.36215 53.3539 8.80985 53.8022 8.80985C54.4 8.80985 54.8484 8.36215 54.8484 7.61599C54.8484 6.86982 54.4 6.42213 53.8022 6.42213Z" fill="white"/>
<path d="M57.9865 5.82515C58.4349 5.82515 58.8832 6.12361 59.1821 6.42208V4.78052H59.7799V9.40673H59.0327V8.8098C58.7338 9.10826 58.4349 9.40673 57.8371 9.40673C56.9404 9.40673 56.1931 8.66056 56.1931 7.61594C56.1931 6.57131 56.9404 5.82515 57.9865 5.82515ZM58.136 6.42208C57.5382 6.42208 57.0898 6.86977 57.0898 7.61594C57.0898 8.3621 57.6876 8.8098 58.136 8.8098C58.7338 8.8098 59.1821 8.3621 59.1821 7.61594C59.1821 6.86977 58.7338 6.42208 58.136 6.42208Z" fill="white"/>
<path d="M63.9648 9.40678C63.0681 9.40678 62.1714 8.66061 62.1714 7.61599C62.1714 6.57136 62.9187 5.8252 63.9648 5.8252C65.011 5.8252 65.7582 6.57136 65.7582 7.61599C65.7582 8.80985 65.011 9.40678 63.9648 9.40678ZM63.9648 8.80985C64.5626 8.80985 65.011 8.36215 65.011 7.61599C65.011 6.86982 64.5626 6.42213 63.9648 6.42213C63.367 6.42213 62.9187 6.86982 62.9187 7.61599C62.9187 8.36215 63.367 8.80985 63.9648 8.80985Z" fill="white"/>
<path d="M68.8963 7.46681C68.8963 6.86988 68.5974 6.57142 67.9996 6.57142C67.4018 6.57142 67.2524 6.72065 67.2524 7.46681V9.40684H66.5051V5.97449H67.2524V6.42218C67.5513 6.12372 67.8502 5.97449 68.2985 5.97449C69.0458 5.97449 69.6436 6.42218 69.6436 7.46681V9.55607H68.8963V7.46681Z" fill="white"/>
<path d="M72.334 6.42195H71.8857V5.97425H72.334V5.07886H73.0813V5.97425H73.978V6.57118H73.0813V8.5112C73.0813 8.80967 73.2307 8.9589 73.5296 8.9589H73.978V9.55583H73.2307C72.6329 9.55583 72.1846 9.25737 72.1846 8.66044V6.42195H72.334Z" fill="white"/>
<path d="M74.5757 4.78052H75.3229V6.42208C75.6218 6.12361 75.9207 5.97438 76.3691 5.97438C77.1163 5.97438 77.7141 6.42208 77.7141 7.4667V9.55596H76.9669V7.4667C76.9669 6.86977 76.668 6.57131 76.0702 6.57131C75.4724 6.57131 75.3229 6.72054 75.3229 7.4667V9.40673H74.5757V4.78052Z" fill="white"/>
<path d="M80.1055 9.40678C79.0594 9.40678 78.3121 8.66061 78.3121 7.61599C78.3121 6.57136 79.0594 5.8252 80.1055 5.8252C81.1517 5.8252 81.7495 6.57136 81.7495 7.61599C81.7495 7.76522 81.7495 7.91445 81.7495 7.91445H79.0594C79.2088 8.51138 79.5077 8.80985 80.1055 8.80985C80.5539 8.80985 80.8528 8.51138 80.8528 8.36215H81.6C81.4506 8.95908 80.8528 9.40678 80.1055 9.40678ZM79.0594 7.31752H81.0022C81.0022 6.72059 80.5539 6.42213 80.1055 6.42213C79.6572 6.42213 79.2088 6.72059 79.0594 7.31752Z" fill="white"/>
</g>
<defs>
<linearGradient id="paint0_linear_2509_46967" x1="15.2685" y1="22.0007" x2="3.92935" y2="10.511" gradientUnits="userSpaceOnUse">
<stop stop-color="#4998D3"/>
<stop offset="0.0066" stop-color="#4A99D3"/>
<stop offset="0.2601" stop-color="#42BAEB"/>
<stop offset="0.5122" stop-color="#41C7F2"/>
<stop offset="0.7604" stop-color="#56C9E9"/>
<stop offset="1" stop-color="#5BCAE8"/>
</linearGradient>
<linearGradient id="paint1_linear_2509_46967" x1="23.4552" y1="14.356" x2="6.88819" y2="14.356" gradientUnits="userSpaceOnUse">
<stop stop-color="#FEE000"/>
<stop offset="0.4087" stop-color="#FEBD11"/>
<stop offset="0.7754" stop-color="#FAA51A"/>
<stop offset="1" stop-color="#F99C1C"/>
</linearGradient>
<linearGradient id="paint2_linear_2509_46967" x1="11.566" y1="18.5198" x2="-3.81072" y2="2.93888" gradientUnits="userSpaceOnUse">
<stop stop-color="#EF4049"/>
<stop offset="1" stop-color="#C31E63"/>
</linearGradient>
<linearGradient id="paint3_linear_2509_46967" x1="-0.378366" y1="22.2275" x2="6.48783" y2="15.2704" gradientUnits="userSpaceOnUse">
<stop stop-color="#32A072"/>
<stop offset="0.0685" stop-color="#2DA771"/>
<stop offset="0.4762" stop-color="#4BBA71"/>
<stop offset="0.8009" stop-color="#5EBD6B"/>
<stop offset="1" stop-color="#66BE69"/>
</linearGradient>
<clipPath id="clip0_2509_46967">
<rect width="93.5555" height="27.3095" fill="white" transform="translate(0 0.751221)"/>
</clipPath>
</defs>
</svg>
